<?xml version="1.0" encoding="utf-8"?>
<!-- Generator: Adobe Illustrator 24.0.0, SVG Export Plug-In . SVG Version: 6.00 Build 0)  -->
<svg version="1.1" xmlns="http://www.w3.org/2000/svg" xmlns:xlink="http://www.w3.org/1999/xlink" x="0px" y="0px"
	 viewBox="0 0 86 86" style="enable-background:new 0 0 86 86;" xml:space="preserve">
<style type="text/css">
	.st0{fill:url(#SVGID_1_);}
	.st1{display:none;}
	.st2{display:inline;fill:url(#SVGID_2_);}
	.st3{fill:url(#SVGID_3_);}
	.st4{fill:url(#SVGID_4_);}
	.st5{fill:url(#SVGID_5_);}
	.st6{fill:#4EE6D0;}
	.st7{opacity:0.9;fill:url(#SVGID_6_);}
	.st8{opacity:0.9;fill:url(#SVGID_7_);}
	.st9{opacity:0.9;fill:url(#SVGID_8_);}
	.st10{opacity:0.9;fill:url(#SVGID_9_);}
	.st11{fill:url(#SVGID_10_);}
</style>
<g id="Слой_1">
	<linearGradient id="SVGID_1_" gradientUnits="userSpaceOnUse" x1="0.3" y1="43" x2="85.7" y2="43">
		<stop  offset="0" style="stop-color:#00B499"/>
		<stop  offset="0.9951" style="stop-color:#1F8180"/>
	</linearGradient>
	<path class="st0" d="M85.7,84.3c0,0.8-0.6,1.4-1.4,1.4H1.7c-0.8,0-1.4-0.6-1.4-1.4V1.7c0-0.8,0.6-1.4,1.4-1.4h82.6
		c0.8,0,1.4,0.6,1.4,1.4L85.7,84.3L85.7,84.3z"/>
</g>
<g id="Слой_3" class="st1">
	<linearGradient id="SVGID_2_" gradientUnits="userSpaceOnUse" x1="75" y1="43" x2="11" y2="43">
		<stop  offset="0" style="stop-color:#CCCCCC"/>
		<stop  offset="1" style="stop-color:#F2F2F2"/>
	</linearGradient>
	<rect x="11" y="11" class="st2" width="64" height="64"/>
</g>
<g id="Слой_2">
	<g id="Layer_1">
		<linearGradient id="SVGID_3_" gradientUnits="userSpaceOnUse" x1="11" y1="31" x2="75" y2="31">
			<stop  offset="0" style="stop-color:#3FD1BB"/>
			<stop  offset="0.9951" style="stop-color:#2CB8B7"/>
		</linearGradient>
		<path class="st3" d="M73,51H13c-1.1,0-2-0.9-2-2V13c0-1.1,0.9-2,2-2h60c1.1,0,2,0.9,2,2v36C75,50.1,74.1,51,73,51z"/>
		<linearGradient id="SVGID_4_" gradientUnits="userSpaceOnUse" x1="67" y1="59.0355" x2="19" y2="59.0355">
			<stop  offset="0" style="stop-color:#CCCCCC"/>
			<stop  offset="1" style="stop-color:#F2F2F2"/>
		</linearGradient>
		<path class="st4" d="M65,75H21c-1.1,0-2-0.9-2-2V43.1h48V73C67,74.1,66.1,75,65,75z"/>
		
			<linearGradient id="SVGID_5_" gradientUnits="userSpaceOnUse" x1="67" y1="66.7766" x2="19" y2="66.7766" gradientTransform="matrix(-1 0 0 -1 86 102)">
			<stop  offset="0" style="stop-color:#2E9C8C"/>
			<stop  offset="0.9951" style="stop-color:#549E9D"/>
		</linearGradient>
		<path class="st5" d="M21,27.2h44c1.1,0,2,0.9,2,2v14H19v-14C19,28.1,19.9,27.2,21,27.2z"/>
		<circle class="st6" cx="65" cy="16.2" r="2"/>
	</g>
	<g id="Слой_5">
		<linearGradient id="SVGID_6_" gradientUnits="userSpaceOnUse" x1="32.7937" y1="60.2417" x2="53.2062" y2="39.8293">
			<stop  offset="0" style="stop-color:#3D3D3D"/>
			<stop  offset="1" style="stop-color:#262626"/>
		</linearGradient>
		<path class="st7" d="M62,51H24c-0.5,0-1-0.5-1-1l0,0c0-0.5,0.4-1,1-1h38c0.5,0,1,0.5,1,1l0,0C63,50.6,62.5,51,62,51z"/>
		<linearGradient id="SVGID_7_" gradientUnits="userSpaceOnUse" x1="32.7937" y1="66.2418" x2="53.2062" y2="45.8293">
			<stop  offset="0" style="stop-color:#3D3D3D"/>
			<stop  offset="1" style="stop-color:#262626"/>
		</linearGradient>
		<path class="st8" d="M62,57H24c-0.5,0-1-0.5-1-1l0,0c0-0.5,0.4-1,1-1h38c0.5,0,1,0.5,1,1l0,0C63,56.6,62.5,57,62,57z"/>
		<linearGradient id="SVGID_8_" gradientUnits="userSpaceOnUse" x1="32.7937" y1="72.2418" x2="53.2062" y2="51.8293">
			<stop  offset="0" style="stop-color:#3D3D3D"/>
			<stop  offset="1" style="stop-color:#262626"/>
		</linearGradient>
		<path class="st9" d="M62,63H24c-0.5,0-1-0.5-1-1l0,0c0-0.5,0.5-1,1-1h38c0.5,0,1,0.5,1,1l0,0C63,62.6,62.5,63,62,63z"/>
		<linearGradient id="SVGID_9_" gradientUnits="userSpaceOnUse" x1="32.7937" y1="78.2418" x2="53.2062" y2="57.8293">
			<stop  offset="0" style="stop-color:#3D3D3D"/>
			<stop  offset="1" style="stop-color:#262626"/>
		</linearGradient>
		<path class="st10" d="M62,69H24c-0.5,0-1-0.4-1-1l0,0c0-0.6,0.5-1,1-1h38c0.5,0,1,0.4,1,1l0,0C63,68.6,62.5,69,62,69z"/>
	</g>
</g>
<g id="Слой_4" class="st1">
	<linearGradient id="SVGID_10_" gradientUnits="userSpaceOnUse" x1="67" y1="27.2872" x2="19" y2="27.2872">
		<stop  offset="0" style="stop-color:#CCCCCC"/>
		<stop  offset="1" style="stop-color:#F2F2F2"/>
	</linearGradient>
	<path class="st11" d="M65,59.2H21c-1.1,0-2-0.9-2-2V-2.6c0-1.1,0.9-2,2-2h44c1.1,0,2,0.9,2,2v59.9C67,58.3,66.1,59.2,65,59.2z"/>
</g>
</svg>
