<?xml version="1.0" encoding="UTF-8" standalone="no"?>
<!-- Generator: Adobe Illustrator 24.0.0, SVG Export Plug-In . SVG Version: 6.00 Build 0)  -->

<svg
   xmlns:dc="http://purl.org/dc/elements/1.1/"
   xmlns:cc="http://creativecommons.org/ns#"
   xmlns:rdf="http://www.w3.org/1999/02/22-rdf-syntax-ns#"
   xmlns:svg="http://www.w3.org/2000/svg"
   xmlns="http://www.w3.org/2000/svg"
   xmlns:sodipodi="http://sodipodi.sourceforge.net/DTD/sodipodi-0.dtd"
   xmlns:inkscape="http://www.inkscape.org/namespaces/inkscape"
   version="1.1"
   x="0px"
   y="0px"
   viewBox="0 0 86 86"
   style="enable-background:new 0 0 86 86;"
   xml:space="preserve"
   id="svg82"
   sodipodi:docname="icon-seaprint-nobg.svg"
   inkscape:version="0.92.3 (2405546, 2018-03-11)"><metadata
   id="metadata88"><rdf:RDF><cc:Work
       rdf:about=""><dc:format>image/svg+xml</dc:format><dc:type
         rdf:resource="http://purl.org/dc/dcmitype/StillImage" /><dc:title></dc:title></cc:Work></rdf:RDF></metadata><defs
   id="defs86" />
<style
   type="text/css"
   id="style2">
	.st0{fill:url(#SVGID_1_);}
	.st1{display:none;}
	.st2{display:inline;fill:url(#SVGID_2_);}
	.st3{fill:url(#SVGID_3_);}
	.st4{fill:url(#SVGID_4_);}
	.st5{fill:url(#SVGID_5_);}
	.st6{fill:#4EE6D0;}
	.st7{opacity:0.9;fill:url(#SVGID_6_);}
	.st8{opacity:0.9;fill:url(#SVGID_7_);}
	.st9{opacity:0.9;fill:url(#SVGID_8_);}
	.st10{opacity:0.9;fill:url(#SVGID_9_);}
	.st11{fill:url(#SVGID_10_);}
</style>

<g
   id="Слой_3"
   class="st1">
	<linearGradient
   id="SVGID_2_"
   gradientUnits="userSpaceOnUse"
   x1="75"
   y1="43"
   x2="11"
   y2="43">
		<stop
   offset="0"
   style="stop-color:#CCCCCC"
   id="stop12" />
		<stop
   offset="1"
   style="stop-color:#F2F2F2"
   id="stop14" />
	</linearGradient>
	<rect
   x="11"
   y="11"
   class="st2"
   width="64"
   height="64"
   id="rect17" />
</g>
<g
   id="Слой_2">
	<g
   id="Layer_1">
		<linearGradient
   id="SVGID_3_"
   gradientUnits="userSpaceOnUse"
   x1="11"
   y1="31"
   x2="75"
   y2="31">
			<stop
   offset="0"
   style="stop-color:#3FD1BB"
   id="stop20" />
			<stop
   offset="0.9951"
   style="stop-color:#2CB8B7"
   id="stop22" />
		</linearGradient>
		<path
   class="st3"
   d="M73,51H13c-1.1,0-2-0.9-2-2V13c0-1.1,0.9-2,2-2h60c1.1,0,2,0.9,2,2v36C75,50.1,74.1,51,73,51z"
   id="path25" />
		<linearGradient
   id="SVGID_4_"
   gradientUnits="userSpaceOnUse"
   x1="67"
   y1="59.0355"
   x2="19"
   y2="59.0355">
			<stop
   offset="0"
   style="stop-color:#CCCCCC"
   id="stop27" />
			<stop
   offset="1"
   style="stop-color:#F2F2F2"
   id="stop29" />
		</linearGradient>
		<path
   class="st4"
   d="M65,75H21c-1.1,0-2-0.9-2-2V43.1h48V73C67,74.1,66.1,75,65,75z"
   id="path32" />

			<linearGradient
   id="SVGID_5_"
   gradientUnits="userSpaceOnUse"
   x1="67"
   y1="66.7766"
   x2="19"
   y2="66.7766"
   gradientTransform="matrix(-1 0 0 -1 86 102)">
			<stop
   offset="0"
   style="stop-color:#2E9C8C"
   id="stop34" />
			<stop
   offset="0.9951"
   style="stop-color:#549E9D"
   id="stop36" />
		</linearGradient>
		<path
   class="st5"
   d="M21,27.2h44c1.1,0,2,0.9,2,2v14H19v-14C19,28.1,19.9,27.2,21,27.2z"
   id="path39" />
		<circle
   class="st6"
   cx="65"
   cy="16.2"
   r="2"
   id="circle41" />
	</g>
	<g
   id="Слой_5">
		<linearGradient
   id="SVGID_6_"
   gradientUnits="userSpaceOnUse"
   x1="32.7937"
   y1="60.2417"
   x2="53.2062"
   y2="39.8293">
			<stop
   offset="0"
   style="stop-color:#3D3D3D"
   id="stop44" />
			<stop
   offset="1"
   style="stop-color:#262626"
   id="stop46" />
		</linearGradient>
		<path
   class="st7"
   d="M62,51H24c-0.5,0-1-0.5-1-1l0,0c0-0.5,0.4-1,1-1h38c0.5,0,1,0.5,1,1l0,0C63,50.6,62.5,51,62,51z"
   id="path49" />
		<linearGradient
   id="SVGID_7_"
   gradientUnits="userSpaceOnUse"
   x1="32.7937"
   y1="66.2418"
   x2="53.2062"
   y2="45.8293">
			<stop
   offset="0"
   style="stop-color:#3D3D3D"
   id="stop51" />
			<stop
   offset="1"
   style="stop-color:#262626"
   id="stop53" />
		</linearGradient>
		<path
   class="st8"
   d="M62,57H24c-0.5,0-1-0.5-1-1l0,0c0-0.5,0.4-1,1-1h38c0.5,0,1,0.5,1,1l0,0C63,56.6,62.5,57,62,57z"
   id="path56" />
		<linearGradient
   id="SVGID_8_"
   gradientUnits="userSpaceOnUse"
   x1="32.7937"
   y1="72.2418"
   x2="53.2062"
   y2="51.8293">
			<stop
   offset="0"
   style="stop-color:#3D3D3D"
   id="stop58" />
			<stop
   offset="1"
   style="stop-color:#262626"
   id="stop60" />
		</linearGradient>
		<path
   class="st9"
   d="M62,63H24c-0.5,0-1-0.5-1-1l0,0c0-0.5,0.5-1,1-1h38c0.5,0,1,0.5,1,1l0,0C63,62.6,62.5,63,62,63z"
   id="path63" />
		<linearGradient
   id="SVGID_9_"
   gradientUnits="userSpaceOnUse"
   x1="32.7937"
   y1="78.2418"
   x2="53.2062"
   y2="57.8293">
			<stop
   offset="0"
   style="stop-color:#3D3D3D"
   id="stop65" />
			<stop
   offset="1"
   style="stop-color:#262626"
   id="stop67" />
		</linearGradient>
		<path
   class="st10"
   d="M62,69H24c-0.5,0-1-0.4-1-1l0,0c0-0.6,0.5-1,1-1h38c0.5,0,1,0.4,1,1l0,0C63,68.6,62.5,69,62,69z"
   id="path70" />
	</g>
</g>
<g
   id="Слой_4"
   class="st1">
	<linearGradient
   id="SVGID_10_"
   gradientUnits="userSpaceOnUse"
   x1="67"
   y1="27.2872"
   x2="19"
   y2="27.2872">
		<stop
   offset="0"
   style="stop-color:#CCCCCC"
   id="stop74" />
		<stop
   offset="1"
   style="stop-color:#F2F2F2"
   id="stop76" />
	</linearGradient>
	<path
   class="st11"
   d="M65,59.2H21c-1.1,0-2-0.9-2-2V-2.6c0-1.1,0.9-2,2-2h44c1.1,0,2,0.9,2,2v59.9C67,58.3,66.1,59.2,65,59.2z"
   id="path79" />
</g>
</svg>
