<?xml version="1.0" encoding="UTF-8" standalone="no"?>
<!-- Generator: Adobe Illustrator 24.0.0, SVG Export Plug-In . SVG Version: 6.00 Build 0)  -->

<svg
   xmlns:dc="http://purl.org/dc/elements/1.1/"
   xmlns:cc="http://creativecommons.org/ns#"
   xmlns:rdf="http://www.w3.org/1999/02/22-rdf-syntax-ns#"
   xmlns:svg="http://www.w3.org/2000/svg"
   xmlns="http://www.w3.org/2000/svg"
   xmlns:sodipodi="http://sodipodi.sourceforge.net/DTD/sodipodi-0.dtd"
   xmlns:inkscape="http://www.inkscape.org/namespaces/inkscape"
   version="1.1"
   x="0px"
   y="0px"
   viewBox="0 0 333 333"
   xml:space="preserve"
   id="svg82"
   sodipodi:docname="icon-seaprint-nobg-bw.svg"
   inkscape:version="0.92.5 (2060ec1f9f, 2020-04-08)"
   width="333"
   height="333"><metadata
   id="metadata88"><rdf:RDF><cc:Work
       rdf:about=""><dc:format>image/svg+xml</dc:format><dc:type
         rdf:resource="http://purl.org/dc/dcmitype/StillImage" /><dc:title></dc:title></cc:Work></rdf:RDF></metadata><defs
   id="defs86"><filter
     style="color-interpolation-filters:sRGB"
     inkscape:label="Greyscale"
     id="filter1011"><feColorMatrix
       values="0 0 0 0 0 0 0 0 0 0 0 0 0 0 0 0.26 0.21 0.69 -0.26 0 "
       id="feColorMatrix1009" /></filter></defs><sodipodi:namedview
   pagecolor="#ffffff"
   bordercolor="#666666"
   borderopacity="1"
   objecttolerance="10"
   gridtolerance="10"
   guidetolerance="10"
   inkscape:pageopacity="0"
   inkscape:pageshadow="2"
   inkscape:window-width="1919"
   inkscape:window-height="2110"
   id="namedview84"
   showgrid="false"
   inkscape:zoom="3.8808651"
   inkscape:cx="165.91282"
   inkscape:cy="145.90119"
   inkscape:window-x="3840"
   inkscape:window-y="0"
   inkscape:window-maximized="0"
   inkscape:current-layer="svg82" />
<style
   type="text/css"
   id="style2">
	.st0{fill:url(#SVGID_1_);}
	.st1{display:none;}
	.st2{display:inline;fill:url(#SVGID_2_);}
	.st3{fill:url(#SVGID_3_);}
	.st4{fill:url(#SVGID_4_);}
	.st5{fill:url(#SVGID_5_);}
	.st6{fill:#4EE6D0;}
	.st7{opacity:0.9;fill:url(#SVGID_6_);}
	.st8{opacity:0.9;fill:url(#SVGID_7_);}
	.st9{opacity:0.9;fill:url(#SVGID_8_);}
	.st10{opacity:0.9;fill:url(#SVGID_9_);}
	.st11{fill:url(#SVGID_10_);}
</style>

<g
   id="Слой_3"
   class="st1"
   style="display:none"
   transform="translate(0,247)">
	<linearGradient
   id="SVGID_2_"
   gradientUnits="userSpaceOnUse"
   x1="75"
   y1="43"
   x2="11"
   y2="43">
		<stop
   offset="0"
   style="stop-color:#CCCCCC"
   id="stop12" />
		<stop
   offset="1"
   style="stop-color:#F2F2F2"
   id="stop14" />
	</linearGradient>
	<rect
   x="11"
   y="11"
   class="st2"
   width="64"
   height="64"
   id="rect17"
   style="display:inline;fill:url(#SVGID_2_)" />
</g>
<g
   id="Слой_2"
   style="filter:url(#filter1011)"
   transform="matrix(4.3359373,0,0,4.3359373,-20.019223,-19.742564)">
	<g
   id="Layer_1">
		<linearGradient
   id="SVGID_3_"
   gradientUnits="userSpaceOnUse"
   x1="11"
   y1="31"
   x2="75"
   y2="31">
			<stop
   offset="0"
   style="stop-color:#3FD1BB"
   id="stop20" />
			<stop
   offset="0.9951"
   style="stop-color:#2CB8B7"
   id="stop22" />
		</linearGradient>
		<path
   class="st3"
   d="M 73,51 H 13 c -1.1,0 -2,-0.9 -2,-2 V 13 c 0,-1.1 0.9,-2 2,-2 h 60 c 1.1,0 2,0.9 2,2 v 36 c 0,1.1 -0.9,2 -2,2 z"
   id="path25"
   inkscape:connector-curvature="0"
   style="fill:url(#SVGID_3_)" />
		<linearGradient
   id="SVGID_4_"
   gradientUnits="userSpaceOnUse"
   x1="67"
   y1="59.0355"
   x2="19"
   y2="59.0355">
			<stop
   offset="0"
   style="stop-color:#CCCCCC"
   id="stop27" />
			<stop
   offset="1"
   style="stop-color:#F2F2F2"
   id="stop29" />
		</linearGradient>
		<path
   class="st4"
   d="M 65,75 H 21 c -1.1,0 -2,-0.9 -2,-2 V 43.1 H 67 V 73 c 0,1.1 -0.9,2 -2,2 z"
   id="path32"
   inkscape:connector-curvature="0"
   style="fill:url(#SVGID_4_)" />

			<linearGradient
   id="SVGID_5_"
   gradientUnits="userSpaceOnUse"
   x1="67"
   y1="66.776604"
   x2="19"
   y2="66.776604"
   gradientTransform="rotate(180,43,51)">
			<stop
   offset="0"
   style="stop-color:#2E9C8C"
   id="stop34" />
			<stop
   offset="0.9951"
   style="stop-color:#549E9D"
   id="stop36" />
		</linearGradient>
		<path
   class="st5"
   d="m 21,27.2 h 44 c 1.1,0 2,0.9 2,2 v 14 H 19 v -14 c 0,-1.1 0.9,-2 2,-2 z"
   id="path39"
   inkscape:connector-curvature="0"
   style="fill:url(#SVGID_5_)" />
		<circle
   class="st6"
   cx="65"
   cy="16.200001"
   r="2"
   id="circle41"
   style="fill:#4ee6d0" />
	</g>
	<g
   id="Слой_5">
		<linearGradient
   id="SVGID_6_"
   gradientUnits="userSpaceOnUse"
   x1="32.793701"
   y1="60.241699"
   x2="53.2062"
   y2="39.8293">
			<stop
   offset="0"
   style="stop-color:#3D3D3D"
   id="stop44" />
			<stop
   offset="1"
   style="stop-color:#262626"
   id="stop46" />
		</linearGradient>
		<path
   class="st7"
   d="M 62,51 H 24 c -0.5,0 -1,-0.5 -1,-1 v 0 c 0,-0.5 0.4,-1 1,-1 h 38 c 0.5,0 1,0.5 1,1 v 0 c 0,0.6 -0.5,1 -1,1 z"
   id="path49"
   inkscape:connector-curvature="0"
   style="opacity:0.9;fill:url(#SVGID_6_)" />
		<linearGradient
   id="SVGID_7_"
   gradientUnits="userSpaceOnUse"
   x1="32.793701"
   y1="66.241798"
   x2="53.2062"
   y2="45.8293">
			<stop
   offset="0"
   style="stop-color:#3D3D3D"
   id="stop51" />
			<stop
   offset="1"
   style="stop-color:#262626"
   id="stop53" />
		</linearGradient>
		<path
   class="st8"
   d="M 62,57 H 24 c -0.5,0 -1,-0.5 -1,-1 v 0 c 0,-0.5 0.4,-1 1,-1 h 38 c 0.5,0 1,0.5 1,1 v 0 c 0,0.6 -0.5,1 -1,1 z"
   id="path56"
   inkscape:connector-curvature="0"
   style="opacity:0.9;fill:url(#SVGID_7_)" />
		<linearGradient
   id="SVGID_8_"
   gradientUnits="userSpaceOnUse"
   x1="32.793701"
   y1="72.241798"
   x2="53.2062"
   y2="51.8293">
			<stop
   offset="0"
   style="stop-color:#3D3D3D"
   id="stop58" />
			<stop
   offset="1"
   style="stop-color:#262626"
   id="stop60" />
		</linearGradient>
		<path
   class="st9"
   d="M 62,63 H 24 c -0.5,0 -1,-0.5 -1,-1 v 0 c 0,-0.5 0.5,-1 1,-1 h 38 c 0.5,0 1,0.5 1,1 v 0 c 0,0.6 -0.5,1 -1,1 z"
   id="path63"
   inkscape:connector-curvature="0"
   style="opacity:0.9;fill:url(#SVGID_8_)" />
		<linearGradient
   id="SVGID_9_"
   gradientUnits="userSpaceOnUse"
   x1="32.793701"
   y1="78.241798"
   x2="53.2062"
   y2="57.8293">
			<stop
   offset="0"
   style="stop-color:#3D3D3D"
   id="stop65" />
			<stop
   offset="1"
   style="stop-color:#262626"
   id="stop67" />
		</linearGradient>
		<path
   class="st10"
   d="M 62,69 H 24 c -0.5,0 -1,-0.4 -1,-1 v 0 c 0,-0.6 0.5,-1 1,-1 h 38 c 0.5,0 1,0.4 1,1 v 0 c 0,0.6 -0.5,1 -1,1 z"
   id="path70"
   inkscape:connector-curvature="0"
   style="opacity:0.9;fill:url(#SVGID_9_)" />
	</g>
</g>
<g
   id="Слой_4"
   class="st1"
   style="display:none"
   transform="translate(0,247)">
	<linearGradient
   id="SVGID_10_"
   gradientUnits="userSpaceOnUse"
   x1="67"
   y1="27.287201"
   x2="19"
   y2="27.287201">
		<stop
   offset="0"
   style="stop-color:#CCCCCC"
   id="stop74" />
		<stop
   offset="1"
   style="stop-color:#F2F2F2"
   id="stop76" />
	</linearGradient>
	<path
   class="st11"
   d="M 65,59.2 H 21 c -1.1,0 -2,-0.9 -2,-2 V -2.6 c 0,-1.1 0.9,-2 2,-2 h 44 c 1.1,0 2,0.9 2,2 v 59.9 c 0,1 -0.9,1.9 -2,1.9 z"
   id="path79"
   inkscape:connector-curvature="0"
   style="fill:url(#SVGID_10_)" />
</g>
</svg>